<?xml version="1.0" encoding="utf-8"?>
<!-- Generator: Adobe Illustrator 16.0.0, SVG Export Plug-In . SVG Version: 6.00 Build 0)  -->
<!DOCTYPE svg PUBLIC "-//W3C//DTD SVG 1.1//EN" "http://www.w3.org/Graphics/SVG/1.1/DTD/svg11.dtd">
<svg version="1.1" id="Layer_1" xmlns="http://www.w3.org/2000/svg" xmlns:xlink="http://www.w3.org/1999/xlink" x="0px" y="0px"
	 width="640px" height="128.081px" viewBox="0 0 640 128.081" enable-background="new 0 0 640 128.081" xml:space="preserve">
<path fill-rule="evenodd" clip-rule="evenodd" fill="#F2F2F2" d="M59.413,66.606c-8.103-13.16-16.17-25.732-31.966-31.976
	c17.587-5.856,32.78,0.069,43.965,18.093c2.329-3.647,4.424-7.319,6.9-10.713c3.644-4.994,8.298-8.714,14.694-9.425
	c1.752-0.195,4.012-0.244,5.046,1.476c1.153,1.918-1.184,2.775-2.08,3.963c-2.305,3.056-4.575,6.209-7.316,8.849
	c-3.941,3.795-4.165,8.909-5.394,13.609c-1.033,3.954,2.982,3.15,4.637,3.245c3.876,0.222,5.632,2.4,6.871,5.495
	c0.455,1.136,0.192,3.151-0.956,2.677c-5.562-2.301-9.383,1.979-13.962,3.225c-3.274,0.891-6.463,0.939-9.786,0.388
	c-7.007-1.163-14.048-2.116-21.063-3.233c-1.415-0.226-3.382-0.451-3.031-2.473c0.273-1.576,2.057-1.428,3.362-1.379
	C52.689,68.552,55.739,67.289,59.413,66.606z"/>
<path fill-rule="evenodd" clip-rule="evenodd" fill="#F2F2F2" d="M330.059,62.896c5.814-0.074,10.566,0.727,15.345,1.451
	c2.26,0.342,3.7,1.43,4.76,3.162c0.748,1.223,1.975,2.561,1.16,4.119c-1.004,1.924-2.659,0.537-4.006,0.405
	c-5.703-0.558-7.071,1.224-4.786,6.556c2.66,6.211,6.515,11.975,6.987,18.984c0.087,1.285,0.766,2.943-0.531,3.709
	c-1.497,0.885-2.221-0.828-3.17-1.684c-6.766-6.094-12.042-13.203-15.552-21.671c-1.179-2.845-2.961-2.261-4.887-0.12
	c-8.782,9.756-18.81,17.823-31.377,22.277c-0.785,0.278-1.579,0.539-2.384,0.75c-1.502,0.395-3.047,0.615-4.06-0.906
	c-0.907-1.364,0.035-2.453,0.722-3.619c2.64-4.488,6.089-8.378,9.678-12.035c2.567-2.615,4.423-5.693,6.82-8.363
	c2.431-2.709,0.59-3.326-1.632-3.632c-1.802-0.249-3.657-0.091-5.487-0.158c-0.906-0.034-1.733-0.506-1.783-1.396
	c-0.025-0.444,0.731-1.303,1.198-1.352C308.591,68.194,318.891,60.725,330.059,62.896z"/>
<path fill-rule="evenodd" clip-rule="evenodd" fill="#F2F2F2" d="M471.272,72.782c4.341,5.969,3.078,12.205,1.182,18.866
	c-2.079,7.304-8.916,7.923-13.805,11.169c-1.677,1.113-2.124-1.239-1.688-2.855c0.739-2.74,3.158-4.223,4.805-6.271
	c4.685-5.83,4.753-10.254,0.012-15.971c-3.396-4.097-10.754-4.733-14.552-0.846c-5.497,5.627-8.517,12.176-6.426,20.381
	c0.463,1.818,2.372,4.504-0.163,5.73c-2.143,1.037-3.896-1.34-5.314-2.898c-4.891-5.376-6.389-17.78-2.884-24.137
	c2.206-4.002-0.751-3.504-3.035-3.799c-1.86-0.242-5.075,1.02-5.247-1.213c-0.232-3.018,3.282-1.916,5.095-2.164
	c6.939-0.949,12.874-5.071,20.021-5.619c8.388-0.643,16.579-0.085,24.802,1.311c2.484,0.422,3.587,2.156,4.647,4.065
	c0.569,1.024,1.262,2.095,0.562,3.265c-0.812,1.356-2.056,0.596-3.144,0.417C474.668,71.969,473.194,71.574,471.272,72.782z"/>
<path fill-rule="evenodd" clip-rule="evenodd" fill="#F2F2F2" d="M179.7,67.653c-6.453-3.845-11.933-8.634-17.276-13.586
	c-2.351-2.179-4.331-4.64-5.008-7.874c-0.201-0.957-0.197-2.041,0.884-2.609c0.759-0.398,1.332,0.162,1.673,0.682
	c2.377,3.621,6.418,4.694,9.994,6.28c8.318,3.689,16.139,8.339,25.293,10.393c7.427,1.666,13.878-0.064,19.465-3.67
	c4.392-2.833,9.754-5.339,12.089-10.809c0.322-0.756,0.948-1.523,1.935-1.051c1.133,0.542,0.979,1.676,0.727,2.609
	c-1.402,5.19-3.221,10.281-7.218,14.028c-2.012,1.885-2.385,3.098-0.51,5.174c0.951,1.053,1.934,2.654,0.976,4.106
	c-1.107,1.678-2.716,0.337-4.097,0.116c-2.077-0.334-3.956,0.037-5.676,1.289c-3.942,2.867-8.33,3.679-13.117,2.959
	c-6.698-1.008-13.432-1.786-20.113-2.889c-2.111-0.349-5.625,0.133-5.662-2.729C174.02,67.234,177.759,69.229,179.7,67.653z"/>
<path fill-rule="evenodd" clip-rule="evenodd" fill="#F2F2F2" d="M584.642,73.212c-2.111,1.185-3.964-0.03-6.184-0.97
	c-3.075-1.301-4.767,1.295-6.184,3.654c-1.315,2.193-2.018,4.551-1.908,7.121c0.075,1.762-0.792,2.892-2.423,3.295
	c-2.166,0.537-2.471-1.455-2.89-2.681c-0.798-2.333-1.81-4.856-1.617-7.21c0.381-4.652-2.413-4.646-5.574-4.763
	c-2.051-0.076-5.595,0.993-5.731-1.185c-0.195-3.093,3.575-1.896,5.591-2.348c4.271-0.955,8.244-1.764,10.757-6.129
	c1.907-3.313,5.291-4.253,9.159-3.008c2.749,0.885,5.304,1.778,8.218-0.661c2.627-2.199,5.735-0.914,7.91,1.657
	c2.041,2.411,4.491,4.012,7.68,3.953c2.4-0.043,3.673,1.418,4.739,3.092c0.767,1.202,1.95,2.604,1.119,4.127
	c-1.014,1.858-2.64,0.619-3.98,0.316c-2.717-0.613-3.734,0.031-3.892,3.16c-0.22,4.363-1.986,8.367-5.382,11.431
	c-1.522,1.374-3.003,2.899-5.128,1.031c-2.155-1.895,0.293-2.841,0.961-4.073C592.414,78.358,589.875,73.25,584.642,73.212z"/>
</svg>
