<?xml version="1.0" encoding="utf-8"?>
<!-- Generator: Adobe Illustrator 16.0.0, SVG Export Plug-In . SVG Version: 6.00 Build 0)  -->
<!DOCTYPE svg PUBLIC "-//W3C//DTD SVG 1.1//EN" "http://www.w3.org/Graphics/SVG/1.1/DTD/svg11.dtd">
<svg version="1.1" id="Layer_1" xmlns="http://www.w3.org/2000/svg" xmlns:xlink="http://www.w3.org/1999/xlink" x="0px" y="0px"
	 width="188px" height="173px" viewBox="0 0 188 173" enable-background="new 0 0 188 173" xml:space="preserve">
<g>
	<linearGradient id="SVGID_1_" gradientUnits="userSpaceOnUse" x1="85.3809" y1="76.3359" x2="96.0684" y2="76.3359">
		<stop  offset="0" style="stop-color:#D96FAD"/>
		<stop  offset="0" style="stop-color:#C58CC3"/>
		<stop  offset="0.2673" style="stop-color:#9E66A1"/>
		<stop  offset="0.5901" style="stop-color:#753F7D"/>
		<stop  offset="0.8456" style="stop-color:#5C2667"/>
		<stop  offset="1" style="stop-color:#531D5F"/>
	</linearGradient>
	<polygon fill="url(#SVGID_1_)" points="96.068,147.259 91.911,146.317 85.381,8.867 94.393,5.413 	"/>
	<path fill="#EBECEF" d="M45.081,25.617l74.663,0.891c0,0,48.227,33.98,6.046,89.932c0,0-8.93-10.444-67.438,7.806
		C58.352,124.245,88.784,66.567,45.081,25.617z"/>
	<g>
		<radialGradient id="SVGID_2_" cx="127.0664" cy="71.4219" r="33.7902" gradientUnits="userSpaceOnUse">
			<stop  offset="0" style="stop-color:#D96FAD"/>
			<stop  offset="0" style="stop-color:#C58CC3"/>
			<stop  offset="1" style="stop-color:#895AAA"/>
		</radialGradient>
		<path fill="url(#SVGID_2_)" d="M119.753,26.508l-8.717-0.104c8.805,7.825,38.441,39.42,6.781,87.378
			c6.365,0.766,7.981,2.657,7.981,2.657C167.979,60.488,119.753,26.508,119.753,26.508z"/>
	</g>
	
		<radialGradient id="SVGID_3_" cx="107.1621" cy="70.499" r="32.685" gradientTransform="matrix(1 0 0 2 0 -70.499)" gradientUnits="userSpaceOnUse">
		<stop  offset="0" style="stop-color:#D96FAD"/>
		<stop  offset="0" style="stop-color:#C58CC3"/>
		<stop  offset="1" style="stop-color:#895AAA"/>
	</radialGradient>
	<path fill="url(#SVGID_3_)" d="M106.577,113.666c13.788-16.857,13.788-43.371,13.788-43.371c0-22.123-12.587-38.22-18.147-43.997
		l-8.258-0.098c9.92,12.711,16.617,30.464,16.049,46.713c-0.509,14.601-5.356,29.576-13.229,41.883
		C100.484,114.226,103.73,113.866,106.577,113.666z"/>
	<radialGradient id="SVGID_4_" cx="86.3979" cy="72.707" r="34.3451" gradientUnits="userSpaceOnUse">
		<stop  offset="0" style="stop-color:#D96FAD"/>
		<stop  offset="0" style="stop-color:#C58CC3"/>
		<stop  offset="1" style="stop-color:#895AAA"/>
	</radialGradient>
	<path fill="url(#SVGID_4_)" d="M88.269,73.333c-0.471,15.767-6.517,32.4-13.315,46.126c3.936-0.999,9.459-2.324,12.8-3.018
		c11.811-18.113,11.811-46.147,11.811-46.147c0-19.339-7.925-34.789-13.788-44.192l-12.543-0.15
		C82.494,40.158,88.744,57.276,88.269,73.333z"/>
	<radialGradient id="SVGID_5_" cx="61.3096" cy="74.9312" r="36.7099" gradientUnits="userSpaceOnUse">
		<stop  offset="0" style="stop-color:#D96FAD"/>
		<stop  offset="0" style="stop-color:#C58CC3"/>
		<stop  offset="1" style="stop-color:#895AAA"/>
	</radialGradient>
	<path fill="url(#SVGID_5_)" d="M58.352,124.245c3.891-1.198,3.658-1.123,7.302-2.207c22.615-48.705,8.597-78.795-6.099-96.248
		l-14.474-0.173C88.784,66.567,58.352,124.245,58.352,124.245z"/>
	<polygon fill="#9576AB" points="45.081,25.617 119.753,26.508 119.645,24.146 44.635,21.784 43.819,24.545 	"/>
	<path fill="#F0AE7B" d="M94.498,20.127l-8.981-1.065c-0.334,0-0.604-0.271-0.604-0.606c0-0.333,0.27-0.604,0.604-0.604
		c0,0,9.081,0.604,9.084,0.604c0.437,0.03,0.607,0.394,0.613,0.788C95.219,19.625,94.981,20.184,94.498,20.127z"/>
	<path fill="#E99470" d="M85.628,21.875l8.981-1.067c0.334,0,0.604-0.269,0.604-0.604c0-0.333-0.271-0.604-0.604-0.604l-9.084,0.604
		c-0.436,0.03-0.607,0.394-0.612,0.787C84.905,21.374,85.146,21.933,85.628,21.875z"/>
	<path fill="#F0AE7B" d="M95.882,125.9l-5.182-1.065c-0.188,0-0.347-0.271-0.347-0.604c0-0.335,0.158-0.604,0.347-0.604l5.24,0.604
		c0.25,0.027,0.351,0.395,0.355,0.787C96.3,125.399,96.161,125.958,95.882,125.9z"/>
	<path fill="#E99470" d="M90.764,127.648l5.184-1.063c0.192,0,0.349-0.271,0.349-0.605c0-0.334-0.156-0.605-0.349-0.605
		l-5.242,0.605c-0.25,0.03-0.35,0.395-0.352,0.787C90.349,127.148,90.486,127.707,90.764,127.648z"/>
	<path fill="#F0AE7B" d="M95.882,129.032l-5.182-1.063c-0.188,0-0.347-0.271-0.347-0.605s0.158-0.605,0.347-0.605l5.24,0.605
		c0.25,0.028,0.351,0.395,0.355,0.787C96.3,128.531,96.161,129.09,95.882,129.032z"/>
	<path fill="#E99470" d="M90.764,130.78l5.184-1.064c0.192,0,0.349-0.271,0.349-0.604c0-0.335-0.156-0.604-0.349-0.604l-5.242,0.604
		c-0.25,0.028-0.35,0.394-0.352,0.787C90.349,130.28,90.486,130.839,90.764,130.78z"/>
	<radialGradient id="SVGID_6_" cx="94" cy="117.9336" r="71.3283" gradientUnits="userSpaceOnUse">
		<stop  offset="0" style="stop-color:#D96FAD"/>
		<stop  offset="0" style="stop-color:#E8B64D"/>
		<stop  offset="1" style="stop-color:#ECAA45"/>
	</radialGradient>
	<path fill="url(#SVGID_6_)" d="M180.532,88.033l1.274-0.851c0,0-3.92-14.744-12.708-18.902l1.888,7.845l-4.158-2.742l0.565,4.327
		l-6.613,0.21l-1.04,1.227l3.023,2.459l-9.073,5.576l-0.85,2.363l4.915-1.04l-7.655,8.884l1.038,1.515l3.497-1.703l-4.535,10.679
		l1.605,1.23l4.083-3.393l2.985,16.251c1.091,4.183-0.062,3.004-1.244,5.212c0,0-4.107,11.077-19.852,11.077l-103.084,2.975
		c0,0-7.853-0.935-7.853-8.074c0-1.475,1.06-3.458,1.581-4.797c0.951-2.443,2.368-4.555,3.48-6.911
		c2.557-5.424,3.248-13.146,0.527-18.609c-2.651-5.326-11.443-7.055-15.378-2.323c-1.439,1.727-2.139,4.305-1.78,6.518
		c0.282,1.735,1.806,2.777,3.515,2.376c0,0,0.107-4.274,5.35-4.274c5.398-0.003,3.261,9.279,1.742,11.775
		c-2.456,4.042-5.199,8.041-8.553,11.379c-5.07,5.048-11.033,10.062-11.033,17.886c0,0,0.225,14.832,14.722,21.411h132.154
		c0,0,20.842-0.478,23.806-18.019c0,0,1.497-8.666-6.756-28.033l-5.747-15.546l2.739-9.355l1.087-0.615l0.52,0.804v5.908
		l-1.842,2.69l6.898-0.281l-1.937-1.466l0.992-6.852l0.944-0.475l3.45,6.431l-1.464,1.699l5.197-1.465l-1.135-6.522l1.606-2.032
		L180.532,88.033z M176.735,93.355c-0.696,0-1.262-0.566-1.262-1.266c0-0.697,0.565-1.262,1.262-1.262
		c0.7,0,1.266,0.564,1.266,1.262C178.001,92.789,177.436,93.355,176.735,93.355z"/>
	<radialGradient id="SVGID_7_" cx="91.8408" cy="144.7773" r="59.5112" gradientUnits="userSpaceOnUse">
		<stop  offset="0" style="stop-color:#D96FAD"/>
		<stop  offset="0" style="stop-color:#C58CC3"/>
		<stop  offset="0.2341" style="stop-color:#BE86C0"/>
		<stop  offset="0.5767" style="stop-color:#AA76B8"/>
		<stop  offset="0.9842" style="stop-color:#8A5BAB"/>
		<stop  offset="1" style="stop-color:#895AAA"/>
	</radialGradient>
	<path fill="url(#SVGID_7_)" d="M162.7,165.15c24.942-17.938-3.926-43.184-3.926-43.184c-0.502,3.267-1.192,5.952-3.376,8.567
		c-2.167,2.598-5.094,4.538-8.24,5.743c-7.328,2.808-15.694,2.069-23.394,2.177c-8.908,0.122-17.817,0.246-26.723,0.369
		c-20.779,0.286-35.72,0.572-56.495,0.898c-6.338,0.098-14.503-2.063-14.503-10.051c0,0,0.146-0.968,0.557-2.408
		c-31.782,20.01-5.698,40.324-5.698,40.324h132.167C153.069,167.587,157.976,167.597,162.7,165.15z"/>
	<radialGradient id="SVGID_8_" cx="91.6953" cy="133.9678" r="52.6204" gradientUnits="userSpaceOnUse">
		<stop  offset="0" style="stop-color:#D96FAD"/>
		<stop  offset="0" style="stop-color:#E8B64D"/>
		<stop  offset="1" style="stop-color:#ECAA45"/>
	</radialGradient>
	<path fill="url(#SVGID_8_)" d="M18.254,133.485c0,7.986,7.949,12.581,15.125,12.481c23.522-0.325,41.21-0.612,64.734-0.899
		c10.084-0.122,20.17-0.245,30.255-0.368c8.721-0.104,15.572-0.023,23.872-2.832c3.561-1.205,6.507-2.903,8.958-5.503
		c1.521-1.607,3.354-5.661,3.939-7.442c-3.91-5.857-6.363-6.955-6.363-6.955c-0.502,3.267-1.192,5.952-3.376,8.567
		c-2.167,2.598-5.094,4.538-8.24,5.743c-7.328,2.808-15.694,2.07-23.394,2.177c-8.908,0.122-17.817,0.246-26.723,0.369
		c-20.779,0.286-35.72,0.572-56.495,0.898c-6.338,0.098-14.503-2.063-14.503-10.051c0,0,0.146-0.968,0.557-2.408
		c-3.977,2.502-5.423,3.026-7.753,5.498C18.395,133.445,18.254,133.485,18.254,133.485z"/>
</g>
</svg>
