<?xml version="1.0" encoding="utf-8"?>
<!-- Generator: Adobe Illustrator 16.0.0, SVG Export Plug-In . SVG Version: 6.00 Build 0)  -->
<!DOCTYPE svg PUBLIC "-//W3C//DTD SVG 1.1//EN" "http://www.w3.org/Graphics/SVG/1.1/DTD/svg11.dtd">
<svg version="1.1" id="Layer_1" xmlns="http://www.w3.org/2000/svg" xmlns:xlink="http://www.w3.org/1999/xlink" x="0px" y="0px"
	 width="260px" height="260px" viewBox="0 0 260 260" enable-background="new 0 0 260 260" xml:space="preserve">
<g>
	<path fill="#FFFFFF" d="M65.894,152.296l-34.451,21.701c0,0-20.512-8.902-23.815,0.825c-2.551,14.781,21.47,13.015,21.47,13.015
		s-6.243,28.555,9.438,23.997c15.698-4.525,5.599-24.03,5.599-24.03l30.075-12.552L65.894,152.296z"/>
	<path fill="#FFFFFF" d="M21.203,113.36c6.284-0.61,15.004-12.956,15.004-12.956l31.99,23.072l5.169-20.107L46.736,82.956
		c0,0,7.911-12.131-0.231-17.564c-8.125-5.358-41.016,22.841-16.177,28.217C14.2,105.516,14.861,113.947,21.203,113.36z"/>
	<path fill="#FFFFFF" d="M201.204,98.514l24.823-19.843c0,0,6.655,12.163,14.55,6.828c7.878-5.351-2.296-20.156-16.647-20.347
		c6.012-17.531-23.732-28.126-13.163-0.768L185.3,78.671L201.204,98.514z"/>
	<path fill="#FFFFFF" d="M252.601,140.132c-2.064-16.333-20.645-4.311-22.246,0.934c-18.778-2.214-32.04-6.541-32.04-6.541
		l-5.599,17.854l26.358,5.037c0,0-3.617,15.888,7.2,15.855c10.867-0.116,9.992-16.021,9.992-16.021S254.632,156.474,252.601,140.132
		z"/>
	<path fill="#FFFFFF" d="M182.162,101.155c-16.779-32.849-65.863-48.101-92.742-13.063c-22.395,34.649-11.057,61.017,11.222,84.286
		c0,0-12.767,6.788-5.219,18.365c7.663,11.528,24.74-9.991,24.74-9.991s4.765,13.245,16.482,10.916
		c11.71-2.361,13.625-13.708,13.625-13.708s10.802,16.054,21.636,10.009c10.834-5.979-2.279-30.967-2.279-30.967
		S198.941,134.062,182.162,101.155z M115.514,146.664c-8.299,1.932-17.63-7.705-20.834-21.503
		c-3.237-13.873,0.875-26.64,9.174-28.556c8.291-1.94,17.638,7.672,20.875,21.545C127.958,131.974,123.805,144.748,115.514,146.664z
		 M159.223,138.001c-6.673,0.917-13.675-8.084-15.45-20.305c-1.883-12.188,2.072-22.924,8.844-23.882
		c6.655-1.023,13.658,8.002,15.475,20.215C169.907,126.21,165.977,136.903,159.223,138.001z"/>
</g>
</svg>
