<?xml version="1.0" encoding="utf-8"?>
<!-- Generator: Adobe Illustrator 16.0.0, SVG Export Plug-In . SVG Version: 6.00 Build 0)  -->
<!DOCTYPE svg PUBLIC "-//W3C//DTD SVG 1.1//EN" "http://www.w3.org/Graphics/SVG/1.1/DTD/svg11.dtd">
<svg version="1.1" id="Layer_1" xmlns="http://www.w3.org/2000/svg" xmlns:xlink="http://www.w3.org/1999/xlink" x="0px" y="0px"
	 width="800px" height="600px" viewBox="0 0 800 600" enable-background="new 0 0 800 600" xml:space="preserve">
<linearGradient id="SVGID_1_" gradientUnits="userSpaceOnUse" x1="401" y1="326" x2="401" y2="-0.9995">
	<stop  offset="0" style="stop-color:#E8B64D"/>
	<stop  offset="0.7223" style="stop-color:#D96FAD"/>
	<stop  offset="1" style="stop-color:#6F388E"/>
</linearGradient>
<rect y="-1" fill="url(#SVGID_1_)" width="802" height="327"/>
<linearGradient id="SVGID_2_" gradientUnits="userSpaceOnUse" x1="401.5" y1="602" x2="401.5" y2="324">
	<stop  offset="0" style="stop-color:#D96FAD"/>
	<stop  offset="0" style="stop-color:#03B2BB"/>
	<stop  offset="0.1336" style="stop-color:#0AB3B8"/>
	<stop  offset="0.3296" style="stop-color:#1EB5AF"/>
	<stop  offset="0.5641" style="stop-color:#3EB9A2"/>
	<stop  offset="0.8261" style="stop-color:#6BBF8E"/>
	<stop  offset="0.9988" style="stop-color:#8CC380"/>
</linearGradient>
<rect x="1" y="324" fill="url(#SVGID_2_)" width="801" height="278"/>
<g>
	<path fill="#03B58A" d="M659.291,319.005c2.382-0.854,5.176-0.139,5.176-0.139c-3.084-4.334-8.244-3.77-8.244-3.77
		c1.252-2.961,4.328-4.197,4.328-4.197c-6.137-1.27-9.352,2.105-9.352,2.105c0.138-2.105,2.664-4.627,2.664-4.627
		c-2.664,0.291-5.191,3.758-5.191,3.758c0.283-2.795-2.098-4.031-2.098-4.031c0.854,2.381-1.245,6.564-1.245,6.564l8.794,6.564
		c4.618-1.113,10.206,1.268,10.206,1.268C662.367,319.829,659.291,319.005,659.291,319.005z"/>
	<path fill="#4C974D" d="M647.1,309.005c0,0,1.32,2.932,0.588,4.977l7.504,6.535c0,0,4.963-0.152,8.207,1.42
		c0,0-3.306-2.932-7.748-2.793c0,0,4.091-1.816,8.168-0.627c0,0-5.443-2.596-9.727-1.145c0,0,2.031-5.236,5.848-6.383
		c0,0-6.694,0.199-9.588,4.078c0,0,0.321-4.396,2.634-6.123c0,0-4.313,1.619-4.663,4.764
		C648.322,313.708,649.215,310.929,647.1,309.005z"/>
</g>
<path fill="#8CC380" d="M767.285,258.47c0,0-41.115,21.451-49.504,82.842l11.503,1.924
	C729.284,343.235,735.506,291.86,767.285,258.47z"/>
<path fill="#03B58A" d="M767.285,258.47c0,0-3.794,1.969-9.328,6.475c0.222-0.031,0.352-0.078,0.352-0.078l-0.58,2.016l-1.199,0.168
	c0,0,1.299,0.809,0.74,1.312c-0.557,0.488-5.908,6.322-5.908,6.322l-1.886-0.076l0.894,1.678
	c-3.092,1.604-10.123,15.422-10.123,15.422l-3.945-0.307l3.977,2.215l-4.076,9.695l-4.412,0.213l3.396,2.32l-1.908,5.711
	c-2.916-0.246-5.039,0.457-5.039,0.457l4.42,1.801c-1.854,4.078-5.801,23.346-5.801,23.346l-8.176-1.467
	c-0.328,1.832-0.627,3.693-0.9,5.619l11.503,1.924C729.284,343.235,735.506,291.86,767.285,258.47z"/>
<path fill="#D4CCDD" d="M754.705,268.333c0,0-27.962,23.16-34.924,65.771l0.511-0.229
	C720.292,333.876,726.896,295.296,754.705,268.333z"/>
<path fill="#8CC380" d="M765.385,260.028c-0.611-0.246,11.115-5.375,24.32-0.506l-1.42,2.764l3.588-0.793
	c0,0,5.497,6.719,5.252,17.543l-3.74,1.725l3.648,2.656c0,0-2.663,10.26-7.732,15.236c0,0-2.55-9.389-3.442-10.641l2.206-2.627
	l-3.176,1.053l-4.672-8.822l2.168-3.574l-2.801,1.74C779.584,275.782,776.393,264.716,765.385,260.028z"/>
<g>
	<path fill="#03B58A" d="M765.857,259.661c-0.396,0.184-0.58,0.336-0.473,0.367c11.008,4.688,14.199,15.754,14.199,15.754
		l2.801-1.74l-2.168,3.574l4.672,8.822l3.176-1.053l-2.206,2.627c0.893,1.252,3.442,10.641,3.442,10.641s2.596-16.564-3.977-28.047
		C779.751,260.882,769.025,259.782,765.857,259.661z"/>
</g>
<path fill="#8CC380" d="M765.857,259.249c0,0-9.648-20.625-32.801-21.283l-4.337,1.268l4.481,3.588l4.801-1.221
	c0,0-0.756,1.754-1.168,2.061c-0.404,0.275,2.428,2.412,2.428,2.412l5.13-1.039l-3.054,2.076l3.565,2.611l4.886-2.367l-3.596,3.178
	C746.193,250.532,753.881,258.897,765.857,259.249z"/>
<path fill="#03B58A" d="M764.568,260.606c0,0-2.298-7.465-0.955-13.252l2.145-0.121l-2.229-1.557l3.542-7.084l2.382-0.062
	c0,0-0.946-1.344-1.092-1.357c-0.114-0.031,4.428-4.475,6.168-5.131l1.611,1.115l-0.572-1.635c0,0,5.693-3.648,13.312-4.732
	c0,0,4.16-0.961,7.336,0.52l-6.785,2.52l3.51,1.541c0,0-4.877,8.152-5.74,8.947l-2.672-1.648l1.307,2.717l-4.764,5.939l-1.656-2.062
	l0.289,3.238l-4.564,4.654C775.141,253.155,767.857,260.089,764.568,260.606z"/>
<g>
	<path fill="#8CC380" d="M764.568,260.606c3.289-0.518,10.572-7.451,10.572-7.451l4.564-4.654l-0.289-3.238l1.656,2.062l4.764-5.939
		l-1.307-2.717l2.672,1.648c0.863-0.795,5.74-8.947,5.74-8.947l-3.51-1.541l6.785-2.52
		C774.912,223.493,764.568,260.606,764.568,260.606z"/>
</g>
<path fill="#03B58A" d="M760.491,257.325c0,0-26.862-11.74-35.794,16.367l2.824-0.947l2.541-3.832l-0.488,2.932l2.191-0.916
	l1.58-3.832l0.428,3.068l7.564-3.756l1.244-3.74l0.589,3.084l8.771-1.68l1.726-3.635l0.45,2.902l11.199-3.467L760.491,257.325z"/>
<path fill="#03B58A" d="M765.255,259.845c0,0,13.054,8.488,12.657,26.824l-2.199,0.916l2.1,1.588l-3.122,11.145l-2.466-0.273
	l1.016,1.434c0,0-4.215,6.367-11.207,8.658c0,0-0.809-13.023-1.672-15.375l3.474-0.031l-3.504-1.709l-0.161-1.908l5.397-1.129
	l-4.778-1.605l-0.198-11.053l5.412-1.297l-4.978-0.352l3.58-2.549l-3.496-0.75l0.496-6.67L765.255,259.845z"/>
<g>
	<path fill="#03B58A" d="M765.255,259.845l-3.649,5.863l-0.496,6.67l3.496,0.75l-3.58,2.549l4.978,0.352l-5.412,1.297l0.198,11.053
		l4.778,1.605l-5.397,1.129l0.161,1.908l3.504,1.709l-3.474,0.031c0.863,2.352,1.672,15.375,1.672,15.375
		C781.82,280.241,765.255,259.845,765.255,259.845z"/>
	<path fill="#03B58A" d="M777.812,289.173l-2.1-1.588l2.199-0.916c0.396-18.336-12.657-26.824-12.657-26.824
		s16.565,20.396-3.222,50.291c6.992-2.291,11.207-8.658,11.207-8.658l-1.016-1.434l2.466,0.273L777.812,289.173z"/>
</g>
<path fill="#03B58A" d="M725.154,273.218c0,0,5.016-13.938,15.062-16.596c10.053-2.656,19.122,0.977,19.122,0.977
	s-8.84-2.258-14.397-0.594l6.87,0.381l-2.663,2.764l-5.871,2.49l0.184-4.705l-2.719,4.855l-6.312,3.818l0.221-3.895l-4.129,5.512
	l0.13-2.9C730.651,265.325,727.155,269.386,725.154,273.218z"/>
<path fill="#03B58A" d="M786.453,228.058c0,0-14.366,4.992-21.633,31.1c0,0,0.343-10.564,7.328-19.863
	C779.141,229.981,786.453,228.058,786.453,228.058z"/>
<path fill="#03B58A" d="M768.247,259.798c0,0,17.321,0.887,20.55,19.023c0,0,2.131,10.504,0.467,19.086
	C789.264,297.907,795.004,267.692,768.247,259.798z"/>
<path fill="#03B58A" d="M766.172,262.546l-3.779,3.055l0.106,5.588l5.931,1.893l-4.809,1.678l4.9,0.566c0,0,0.649,8.32-1.038,14.9
	l-3.74,1.818l4.978,0.457c0,0-1.588,8.703-5.604,17.207c0,0,8.115-13.252,8.344-27.268
	C771.682,268.425,766.172,262.546,766.172,262.546z"/>
<path fill="#03B58A" d="M735.049,239.003c0,0,17.352-0.365,27.29,17.115l-5.909-1.525l-3.099-2.398l2.298-1.48l-2.803,0.885
	l-3.602-2.764l2.511-3.008l-4.511,0.367l1.137-2.381C748.361,243.813,744.514,240.638,735.049,239.003z"/>
<path fill="#8CC380" d="M491.686,215.37c0,0,47.664,33.236,48.244,110.871l-14.572,0.551
	C525.357,326.792,525.838,261.95,491.686,215.37z"/>
<g>
	<path fill="#03B58A" d="M491.686,215.37c0,0,4.428,3.084,10.572,9.543c-0.274-0.076-0.428-0.139-0.428-0.139l0.382,2.611
		l1.489,0.383c0,0-1.725,0.807-1.146,1.48c0.634,0.732,6.336,8.84,6.336,8.84l2.344,0.213l-1.374,1.924
		c3.588,2.504,10.122,20.777,10.122,20.777l4.97,0.262l-5.336,2.105l3.549,12.719l5.436,0.945l-4.58,2.367l1.45,7.404
		c3.649,0.139,6.177,1.375,6.177,1.375l-5.795,1.512c1.672,5.357,3.451,29.939,3.451,29.939l10.45-0.504
		c0.084,2.32,0.16,4.717,0.175,7.113l-14.572,0.551C525.357,326.792,525.838,261.95,491.686,215.37z"/>
</g>
<path fill="#D4CCDD" d="M505.754,229.646c0,0,31.031,33.268,32.855,87.314L538,316.579C538,316.579,535.991,267.616,505.754,229.646
	z"/>
<path fill="#8CC380" d="M493.822,217.63c0.803-0.215-12.961-8.475-30.138-4.52l1.306,3.664l-4.344-1.588c0,0-7.9,7.496-9.336,20.979
	l4.382,2.748l-4.962,2.732c0,0,1.68,13.146,7.191,20.152c0,0,4.626-11.283,5.946-12.686l-2.282-3.619l3.778,1.816l7.19-10.197
	l-2.122-4.779l3.214,2.596C473.646,234.929,479.379,221.675,493.822,217.63z"/>
<g>
	<path fill="#03B58A" d="M493.273,217.095c0.465,0.291,0.679,0.504,0.549,0.535c-14.443,4.045-20.176,17.299-20.176,17.299
		l-3.214-2.596l2.122,4.779l-7.19,10.197l-3.778-1.816l2.282,3.619c-1.32,1.402-5.946,12.686-5.946,12.686
		s-0.611-21.008,9.404-34.215C475.83,216.362,489.326,216.714,493.273,217.095z"/>
</g>
<path fill="#8CC380" d="M493.326,216.593c0,0,15.314-24.094,44.199-21.238l5.184,2.275l-6.138,3.756l-5.786-2.275
	c0,0,0.656,2.307,1.122,2.734c0.466,0.426-3.397,2.623-3.397,2.623l-6.206-2.105l3.451,3.084l-4.825,2.641l-5.694-3.709l3.946,4.52
	C519.182,208.897,508.281,218.042,493.326,216.593z"/>
<path fill="#03B58A" d="M494.724,218.454c0,0,4.046-8.9,3.329-16.307l-2.635-0.488l3-1.588l-3.282-9.359l-2.932-0.473
	c0,0,1.413-1.512,1.542-1.512c0.168,0-4.74-6.244-6.84-7.328l-2.13,1.084l0.924-1.908c0,0-6.45-5.467-15.748-8.029
	c0,0-5.046-1.863-9.229-0.535l8.039,4.229l-4.611,1.344c0,0,4.802,10.9,5.711,12.047l3.571-1.604l-2.061,3.16l4.962,8.121
	l2.42-2.289l-0.901,3.984l4.932,6.52C482.784,207.522,490.746,217.31,494.724,218.454z"/>
<g>
	<path fill="#8CC380" d="M494.724,218.454c-3.978-1.145-11.939-10.932-11.939-10.932l-4.932-6.52l0.901-3.984l-2.42,2.289
		l-4.962-8.121l2.061-3.16l-3.571,1.604c-0.909-1.146-5.711-12.047-5.711-12.047l4.611-1.344l-8.039-4.229
		C487.822,170.698,494.724,218.454,494.724,218.454z"/>
</g>
<path fill="#03B58A" d="M500.35,215.05c0,0,35.237-10.275,41.848,26.061l-3.389-1.633l-2.52-5.145l0.16,3.709l-2.61-1.48
	l-1.366-5.008l-1.023,3.725l-8.771-5.893l-0.961-4.824l-1.215,3.74l-10.641-3.496l-1.542-4.795l-1.03,3.543l-13.375-6.123
	L500.35,215.05z"/>
<path fill="#03B58A" d="M494.014,217.431c0,0-17.581,8.443-20.039,31.314l2.588,1.449l-2.87,1.666l2.1,14.32l3.122,0.076
	l-1.504,1.617c0,0,4.213,8.596,12.527,12.564c0,0,3.1-16.061,4.572-18.84l-4.312-0.641l4.617-1.541l0.48-2.32l-6.503-2.305
	l6.175-1.223l2.008-13.68l-6.496-2.475l6.245,0.336l-4.03-3.74l4.449-0.365l0.467-8.367L494.014,217.431z"/>
<g>
	<path fill="#03B58A" d="M494.014,217.431l3.596,7.848l-0.467,8.367l-4.449,0.365l4.03,3.74l-6.245-0.336l6.496,2.475l-2.008,13.68
		l-6.175,1.223l6.503,2.305l-0.48,2.32l-4.617,1.541l4.312,0.641c-1.473,2.779-4.572,18.84-4.572,18.84
		C470.143,240.118,494.014,217.431,494.014,217.431z"/>
	<path fill="#8CC380" d="M473.692,251.86l2.87-1.666l-2.588-1.449c2.458-22.871,20.039-31.314,20.039-31.314
		s-23.871,22.688-4.076,63.008c-8.314-3.969-12.527-12.564-12.527-12.564l1.504-1.617l-3.122-0.076L473.692,251.86z"/>
</g>
<path fill="#03B58A" d="M541.687,240.454c0,0-3.993-18.139-16.062-23.039c-12.046-4.885-23.895-1.832-23.895-1.832
	s11.344-1.402,17.963,1.559l-8.588-0.656l2.87,3.893l6.878,4.045l0.542-5.877l2.588,6.441l7.237,5.742l0.351-4.855l4.244,7.512
	l0.313-3.619C536.129,229.767,539.839,235.37,541.687,240.454z"/>
<path fill="#03B58A" d="M472.746,174.53c0,0,17.068,8.518,21.908,42.092c0,0,1.26-13.176-5.931-25.863
	C481.539,178.103,472.746,174.53,472.746,174.53z"/>
<path fill="#03B58A" d="M490.288,216.882c0,0-21.665-1.68-28.573,20.352c0,0-4.328,12.703-3.633,23.633
	C458.082,260.866,455.769,222.409,490.288,216.882z"/>
<path fill="#03B58A" d="M492.426,220.638l4.236,4.396l-1.037,6.916l-7.695,1.404l5.726,2.871l-6.207-0.076
	c0,0-2.114,10.229-1.075,18.656l4.373,2.84l-6.282-0.213c0,0,0.558,11.068,4.198,22.305c0,0-7.961-17.787-5.984-35.223
	C484.647,227.05,492.426,220.638,492.426,220.638z"/>
<path fill="#03B58A" d="M534.869,196.347c0,0-21.512-3.236-36.649,16.916l7.581-0.947l4.244-2.486l-2.627-2.23l3.328,1.557
	l4.932-2.84l-2.604-4.152l5.52,1.162l-1.038-3.1C517.556,200.226,522.854,196.88,534.869,196.347z"/>
<path fill="#8CC380" d="M702.414,232.149c0,0-44.52,14.824-62.772,74.84l11.177,3.742
	C650.818,310.731,665.299,260.394,702.414,232.149z"/>
<g>
	<path fill="#03B58A" d="M702.414,232.149c0,0-4.115,1.359-10.359,4.963c0.229-0.018,0.367-0.018,0.367-0.018l-0.9,1.939
		l-1.229-0.045c0,0,1.146,1.006,0.519,1.42c-0.648,0.396-6.908,5.373-6.908,5.373l-1.871-0.365l0.635,1.816
		c-3.344,1.1-12.604,13.77-12.604,13.77l-3.9-0.93l3.617,2.84l-5.641,9.053l-4.436-0.504l3,2.871l-2.801,5.404
		c-2.879-0.732-5.107-0.365-5.107-0.365l4.13,2.504c-2.519,3.77-9.526,22.412-9.526,22.412l-7.978-2.779
		c-0.603,1.771-1.19,3.602-1.779,5.48l11.177,3.742C650.818,310.731,665.299,260.394,702.414,232.149z"/>
</g>
<path fill="#D4CCDD" d="M688.254,239.95c0,0-31.65,18.688-45.429,60.139l0.526-0.152C643.352,299.937,656.162,262.47,688.254,239.95
	z"/>
<path fill="#8CC380" d="M700.262,233.386c-0.55-0.352,11.984-3.572,24.381,3.42l-1.839,2.533l3.733-0.242
	c0,0,4.404,7.633,2.412,18.381l-4.023,1.145l3.215,3.223c0,0-4.307,9.832-10.177,13.984c0,0-1.022-9.771-1.71-11.191l2.596-2.26
	l-3.321,0.535l-3.251-9.559l2.74-3.205l-3.085,1.268C711.933,251.417,710.537,239.845,700.262,233.386z"/>
<g>
	<path fill="#03B58A" d="M700.811,233.11c-0.42,0.123-0.633,0.244-0.549,0.275c10.275,6.459,11.671,18.031,11.671,18.031
		l3.085-1.268l-2.74,3.205l3.251,9.559l3.321-0.535l-2.596,2.26c0.688,1.42,1.71,11.191,1.71,11.191s5.268-16.121,0.519-28.656
		C714.506,236.546,703.941,233.722,700.811,233.11z"/>
</g>
<path fill="#8CC380" d="M700.864,232.685c0,0-6.321-22.17-29.344-26.537l-4.542,0.564l3.908,4.291l4.977-0.428
	c0,0-1.037,1.65-1.488,1.879c-0.45,0.197,2.039,2.793,2.039,2.793l5.289-0.213l-3.373,1.604l3.145,3.176l5.26-1.604l-4.13,2.596
	C682.604,220.806,688.949,230.409,700.864,232.685z"/>
<path fill="#03B58A" d="M699.368,233.845c0,0-1.092-7.834,1.161-13.422l2.145,0.23l-1.939-1.91l4.672-6.502l2.367,0.305
	c0,0-0.733-1.496-0.84-1.512c-0.115-0.061,5.114-3.756,6.984-4.123l1.42,1.344l-0.297-1.725c0,0,6.267-2.732,14.045-2.596
	c0,0,4.321-0.275,7.275,1.709l-7.214,1.42l3.274,2.123c0,0-6.213,7.344-7.168,8.016l-2.412-2.076l0.878,2.916l-5.718,5.16
	l-1.328-2.307l-0.252,3.283l-5.291,3.924C711.131,228.103,702.742,233.845,699.368,233.845z"/>
<g>
	<path fill="#8CC380" d="M699.368,233.845c3.374,0,11.763-5.742,11.763-5.742l5.291-3.924l0.252-3.283l1.328,2.307l5.718-5.16
		l-0.878-2.916l2.412,2.076c0.955-0.672,7.168-8.016,7.168-8.016l-3.274-2.123l7.214-1.42
		C715.666,198.423,699.368,233.845,699.368,233.845z"/>
</g>
<path fill="#03B58A" d="M695.804,229.903c0,0-24.948-16.045-38.383,10.598l2.962-0.475l3.152-3.436l-0.954,2.84l2.344-0.549
	l2.19-3.557l-0.053,3.129l8.145-2.551l1.848-3.525l0.092,3.189l9.045-0.289l2.283-3.357v2.99l11.771-1.693L695.804,229.903z"/>
<path fill="#03B58A" d="M700.162,233.202c0,0,11.688,10.566,8.344,28.855l-2.336,0.52l1.84,1.969l-4.908,10.596l-2.42-0.672
	l0.785,1.619c0,0-5.236,5.695-12.588,6.854c0,0,1.283-13.16,0.787-15.648l3.48,0.504l-3.229-2.244l0.145-1.939l5.573-0.273
	l-4.513-2.338l1.581-11.082l5.626-0.428l-4.924-1.16l3.984-2.002l-3.381-1.281l1.572-6.596L700.162,233.202z"/>
<g>
	<path fill="#03B58A" d="M700.162,233.202l-4.58,5.252l-1.572,6.596l3.381,1.281l-3.984,2.002l4.924,1.16l-5.626,0.428
		l-1.581,11.082l4.513,2.338l-5.573,0.273l-0.145,1.939l3.229,2.244l-3.48-0.504c0.496,2.488-0.787,15.648-0.787,15.648
		C713.461,256.241,700.162,233.202,700.162,233.202z"/>
	<path fill="#03B58A" d="M708.01,264.546l-1.84-1.969l2.336-0.52c3.344-18.289-8.344-28.855-8.344-28.855
		s13.299,23.039-11.283,49.74c7.352-1.158,12.588-6.854,12.588-6.854l-0.785-1.619l2.42,0.672L708.01,264.546z"/>
</g>
<path fill="#03B58A" d="M657.963,240.118c0,0,7.244-13.145,17.695-14.184c10.473-1.021,18.947,4.078,18.947,4.078
	s-8.443-3.695-14.283-2.918l6.816,1.451l-3.106,2.352l-6.26,1.572l0.924-4.672l-3.489,4.381l-6.908,2.795l0.832-3.832l-5.03,4.854
	l0.61-2.885C664.711,233.11,660.551,236.591,657.963,240.118z"/>
<path fill="#03B58A" d="M726.468,204.835c0,0-15.16,2.688-26.611,27.59c0,0,2.03-10.506,10.512-18.672
	C718.834,205.583,726.468,204.835,726.468,204.835z"/>
<path fill="#03B58A" d="M703.17,233.614c0,0,17.16,3.68,17.48,22.307c0,0,0.443,10.854-2.596,19.16
	C718.055,275.081,728.644,245.827,703.17,233.614z"/>
<path fill="#03B58A" d="M700.643,236.042l-4.26,2.443l-0.801,5.602l5.626,2.84l-5.062,0.902l4.795,1.373
	c0,0-0.68,8.412-3.428,14.703l-4.031,1.207l4.9,1.252c0,0-2.969,8.473-8.358,16.336c0,0,10.26-11.971,12.726-25.939
	C705.216,242.79,700.643,236.042,700.643,236.042z"/>
<path fill="#03B58A" d="M673.33,207.507c0,0,17.42,2.428,24.519,21.496l-5.649-2.473l-2.709-2.9l2.541-1.115l-2.953,0.428
	l-3.138-3.328l2.97-2.625l-4.558-0.336l1.526-2.184C685.879,214.47,682.535,210.667,673.33,207.507z"/>
<path fill="#8CC380" d="M578.267,226.853c0,0,44.544,14.809,62.772,74.824l-11.184,3.771
	C629.855,305.448,615.397,255.126,578.267,226.853z"/>
<g>
	<path fill="#03B58A" d="M578.267,226.853c0,0,4.123,1.357,10.382,4.977c-0.236,0-0.381-0.031-0.381-0.031l0.9,1.939l1.221-0.047
		c0,0-1.137,1.023-0.511,1.406c0.642,0.41,6.916,5.389,6.916,5.389l1.87-0.367l-0.641,1.832
		c3.351,1.115,12.603,13.756,12.603,13.756l3.909-0.914l-3.627,2.822l5.648,9.039l4.429-0.488l-3,2.885l2.802,5.391
		c2.885-0.734,5.105-0.367,5.105-0.367l-4.137,2.533c2.512,3.742,9.564,22.385,9.564,22.385l7.947-2.795
		c0.604,1.771,1.207,3.602,1.771,5.48l-11.184,3.771C629.855,305.448,615.397,255.126,578.267,226.853z"/>
</g>
<path fill="#D4CCDD" d="M592.428,234.669c0,0,31.664,18.686,45.466,60.107l-0.55-0.137
	C637.344,294.64,624.559,257.157,592.428,234.669z"/>
<path fill="#8CC380" d="M580.42,228.103c0.58-0.352-11.97-3.588-24.375,3.404l1.855,2.549l-3.74-0.258c0,0-4.405,7.633-2.42,18.396
	l4.021,1.131l-3.213,3.236c0,0,4.313,9.803,10.184,13.971c0,0,1.016-9.771,1.688-11.178l-2.572-2.258l3.312,0.502l3.274-9.541
	l-2.748-3.223l3.069,1.283C568.756,246.118,570.168,234.546,580.42,228.103z"/>
<g>
	<path fill="#03B58A" d="M579.885,227.813c0.428,0.123,0.619,0.244,0.535,0.289c-10.252,6.443-11.664,18.016-11.664,18.016
		l-3.069-1.283l2.748,3.223l-3.274,9.541l-3.312-0.502l2.572,2.258c-0.672,1.406-1.688,11.178-1.688,11.178
		s-5.291-16.139-0.543-28.658C566.205,231.265,576.725,228.423,579.885,227.813z"/>
</g>
<path fill="#8CC380" d="M579.824,227.386c0,0,6.344-22.154,29.328-26.551l4.565,0.582l-3.908,4.303l-4.985-0.441
	c0,0,1.031,1.648,1.488,1.893c0.459,0.199-2.029,2.779-2.029,2.779l-5.299-0.213l3.382,1.604l-3.137,3.174l-5.237-1.588l4.084,2.596
	C598.076,215.522,591.732,225.11,579.824,227.386z"/>
<path fill="#03B58A" d="M581.312,228.546c0,0,1.1-7.832-1.152-13.42l-2.145,0.229l1.938-1.908l-4.665-6.488l-2.389,0.305
	c0,0,0.74-1.512,0.855-1.525c0.122-0.047-5.107-3.756-6.985-4.123l-1.413,1.328l0.299-1.695c0,0-6.268-2.732-14.055-2.596
	c0,0-4.327-0.289-7.267,1.711l7.19,1.42l-3.259,2.092c0,0,6.214,7.375,7.176,8.031l2.42-2.062l-0.894,2.9l5.726,5.162l1.343-2.305
	l0.215,3.279l5.312,3.924C569.564,222.804,577.954,228.546,581.312,228.546z"/>
<g>
	<path fill="#8CC380" d="M581.312,228.546c-3.358,0-11.748-5.742-11.748-5.742l-5.312-3.924l-0.215-3.279l-1.343,2.305l-5.726-5.162
		l0.894-2.9l-2.42,2.062c-0.962-0.656-7.176-8.031-7.176-8.031l3.259-2.092l-7.19-1.42
		C565.029,193.11,581.312,228.546,581.312,228.546z"/>
</g>
<path fill="#03B58A" d="M584.878,224.622c0,0,24.954-16.047,38.397,10.58l-2.977-0.488l-3.138-3.404l0.946,2.84l-2.328-0.551
	l-2.191-3.572l0.054,3.131l-8.16-2.566l-1.848-3.51l-0.1,3.189l-9.046-0.289l-2.289-3.375v2.992l-11.749-1.68L584.878,224.622z"/>
<path fill="#03B58A" d="M580.511,227.905c0,0-11.664,10.564-8.335,28.84l2.32,0.533l-1.802,1.955l4.894,10.627l2.436-0.656
	l-0.811,1.57c0,0,5.244,5.711,12.604,6.871c0,0-1.274-13.16-0.786-15.65l-3.488,0.506l3.237-2.229l-0.161-1.939l-5.565-0.291
	l4.52-2.336l-1.588-11.084l-5.617-0.443l4.93-1.145l-3.999-1.984l3.381-1.283l-1.564-6.609L580.511,227.905z"/>
<g>
	<path fill="#03B58A" d="M580.511,227.905l4.604,5.252l1.564,6.609l-3.381,1.283l3.999,1.984l-4.93,1.145l5.617,0.443l1.588,11.084
		l-4.52,2.336l5.565,0.291l0.161,1.939l-3.237,2.229l3.488-0.506c-0.488,2.49,0.786,15.65,0.786,15.65
		C567.236,250.942,580.511,227.905,580.511,227.905z"/>
	<path fill="#03B58A" d="M572.694,259.233l1.802-1.955l-2.32-0.533c-3.329-18.275,8.335-28.84,8.335-28.84
		s-13.274,23.037,11.306,49.74c-7.359-1.16-12.604-6.871-12.604-6.871l0.811-1.57l-2.436,0.656L572.694,259.233z"/>
</g>
<path fill="#03B58A" d="M622.725,234.806c0,0-7.236-13.131-17.693-14.168c-10.482-1.039-18.947,4.076-18.947,4.076
	s8.465-3.695,14.29-2.916l-6.817,1.465l3.107,2.352l6.26,1.559l-0.938-4.688l3.496,4.412l6.915,2.793l-0.824-3.861l5.023,4.885
	l-0.626-2.9C615.97,227.813,620.146,231.294,622.725,234.806z"/>
<path fill="#8CC380" d="M554.213,199.552c0,0,15.184,2.688,26.626,27.574c0,0-2.03-10.488-10.503-18.672
	C561.854,200.286,554.213,199.552,554.213,199.552z"/>
<path fill="#03B58A" d="M577.526,228.333c0,0-17.168,3.678-17.481,22.32c0,0-0.457,10.84,2.604,19.129
	C562.648,269.782,552.029,240.53,577.526,228.333z"/>
<path fill="#03B58A" d="M580.037,230.759l4.283,2.428l0.794,5.604l-5.642,2.855l5.068,0.9l-4.816,1.344
	c0,0,0.726,8.443,3.458,14.701l4.03,1.238l-4.916,1.236c0,0,2.985,8.457,8.367,16.336c0,0-10.252-11.971-12.71-25.939
	C575.473,237.507,580.037,230.759,580.037,230.759z"/>
<path fill="#03B58A" d="M607.344,202.21c0,0-17.404,2.412-24.504,21.48l5.648-2.457l2.719-2.9l-2.551-1.115l2.947,0.441l3.175-3.328
	l-3-2.625l4.565-0.365l-1.527-2.154C594.816,209.187,598.168,205.37,607.344,202.21z"/>
<path fill="#8CC380" d="M653.695,188.134c0,0-37.771,47.328-15.367,125.055l14.727-3.771
	C653.055,309.417,633.383,244.79,653.695,188.134z"/>
<g>
	<path fill="#03B58A" d="M653.695,188.134c0,0-3.48,4.381-7.717,12.67c0.221-0.15,0.389-0.273,0.389-0.273l0.389,2.732l-1.35,0.795
		c0,0,1.93,0.305,1.541,1.189c-0.412,0.9-3.717,10.672-3.717,10.672l-2.26,0.902l1.961,1.541
		c-2.869,3.543-3.953,23.758-3.953,23.758l-4.924,1.723l5.953,0.52l0.223,13.74l-5.123,2.582l5.252,0.992l0.74,7.816
		c-3.603,1.236-5.763,3.207-5.763,3.207l6.214-0.184c-0.055,5.832,5.42,30.932,5.42,30.932l-10.565,2.549
		c0.603,2.381,1.198,4.779,1.923,7.191l14.727-3.771C653.055,309.417,633.383,244.79,653.695,188.134z"/>
</g>
<path fill="#D4CCDD" d="M643.879,206.544c0,0-21.139,42.445-6.971,96.949l0.482-0.52
	C637.391,302.974,624.916,253.446,643.879,206.544z"/>
<path fill="#8CC380" d="M652.245,191.019c-0.862,0.016,10.458-12.275,28.771-13.42l-0.222,4.029l3.886-2.869
	c0,0,10.084,5.145,15.52,18.184l-3.558,4.061l5.748,1.236c0,0,2.244,13.65-1.197,22.275c0,0-7.971-9.877-9.695-10.9l1.206-4.289
	l-3.245,2.93l-10.213-8.045l0.725-5.422l-2.428,3.543C677.543,202.331,667.879,190.79,652.245,191.019z"/>
<g>
	<path fill="#03B58A" d="M652.635,190.315c-0.374,0.443-0.52,0.703-0.39,0.703c15.634-0.229,25.298,11.312,25.298,11.312
		l2.428-3.543l-0.725,5.422l10.213,8.045l3.245-2.93l-1.206,4.289c1.725,1.023,9.695,10.9,9.695,10.9s-5.611-21.129-19.535-31.404
		C669.863,184.454,656.475,188.79,652.635,190.315z"/>
</g>
<path fill="#8CC380" d="M652.405,189.812c0,0-22.39-19.512-50.382-8.107l-4.52,3.834l7.229,1.893l5.1-3.969
	c0,0,0.023,2.518-0.305,3.068c-0.336,0.549,4.19,1.604,4.19,1.604l5.572-3.939l-2.572,4.092l5.642,1.236l4.604-5.42l-2.619,5.709
	C624.344,189.812,637.924,195.737,652.405,189.812z"/>
<path fill="#03B58A" d="M651.416,191.913c0,0-6.66-7.68-8.137-15.268l2.494-1.264l-3.459-0.684l0.51-10.279l2.766-1.34
	c0,0-1.823-1.08-1.991-1.033c-0.121,0.031,2.898-7.635,4.677-9.34l2.434,0.473l-1.514-1.643c0,0,4.867-7.33,13.361-12.623
	c0,0,4.441-3.346,9.011-3.254l-6.753,6.568l4.988-0.029c0,0-1.551,12.273-2.128,13.688l-4.062-0.531l2.995,2.523l-2.547,9.551
	l-3.049-1.566l2.029,3.695l-2.973,7.955C660.069,177.513,655.028,189.573,651.416,191.913z"/>
<g>
	<path fill="#8CC380" d="M651.597,192.132c3.626-2.35,8.687-14.457,8.687-14.457l2.984-7.984l-2.037-3.711l3.061,1.572l2.557-9.588
		l-3.007-2.533l4.077,0.533c0.58-1.42,2.137-13.74,2.137-13.74l-5.008,0.029l6.779-6.594
		C644.345,142.392,651.597,192.132,651.597,192.132z"/>
</g>
<path fill="#03B58A" d="M644.985,190.376c0,0-38.252,0.168-34.114,38.43l2.893-2.643l0.992-5.893l0.97,3.742l2.153-2.215
	l-0.123-5.436l2.13,3.451l7.008-8.49l-0.458-5.129l2.336,3.404l9.596-6.656l0.129-5.238l2.062,3.223l11.549-10.061L644.985,190.376z
	"/>
<path fill="#03B58A" d="M652.001,190.88c0,0,20.077,3.223,29.29,25.346l-2.16,2.229l3.336,0.809l2.176,14.918l-3.092,1.006
	l1.971,1.176c0,0-1.673,9.848-8.817,16.26c0,0-7.848-15.145-10.115-17.48l4.114-1.879l-5.061-0.168l-1.191-2.213l5.816-4.229
	l-6.518,0.625l-6.062-13.068l5.771-4.412l-6.138,2.197l2.924-4.932l-4.564,0.963l-2.954-8.246L652.001,190.88z"/>
<g>
	<path fill="#03B58A" d="M652.001,190.88l-1.274,8.9l2.954,8.246l4.564-0.963l-2.924,4.932l6.138-2.197l-5.771,4.412l6.062,13.068
		l6.518-0.625l-5.816,4.229l1.191,2.213l5.061,0.168l-4.114,1.879c2.268,2.336,10.115,17.48,10.115,17.48
		C682.551,206.483,652.001,190.88,652.001,190.88z"/>
	<path fill="#03B58A" d="M682.467,219.263l-3.336-0.809l2.16-2.229c-9.213-22.123-29.29-25.346-29.29-25.346
		s30.55,15.604,22.703,61.742c7.145-6.412,8.817-16.26,8.817-16.26l-1.971-1.176l3.092-1.006L682.467,219.263z"/>
</g>
<path fill="#03B58A" d="M611.199,227.997c0,0-1.39-19.314,9.19-27.771c10.61-8.475,23.359-8.902,23.359-8.902
	s-11.726,1.955-17.489,6.871l8.382-3.191l-1.71,4.732l-5.688,6.062l-2.251-5.695l-0.702,7.191l-5.52,7.908l-1.801-4.779
	l-2.008,8.811l-1.375-3.572C613.588,215.661,611.535,222.362,611.199,227.997z"/>
<path fill="#8CC380" d="M660.551,141.735c0,0-14.496,13.543-9.436,48.535c0,0-5.16-12.809-1.717-27.588
	C652.826,147.903,660.551,141.735,660.551,141.735z"/>
<path fill="#03B58A" d="M655.566,189.247c0,0,21.152-8.092,34.572,11.848c0,0,8.092,11.436,10.627,22.551
	C700.766,223.646,691.696,184.544,655.566,189.247z"/>
<path fill="#03B58A" d="M654.543,193.63l-2.924,5.633l3.062,6.611l8.1-0.871l-4.848,4.535l6.159-1.91c0,0,5.146,9.59,6.604,18.338
	l-3.527,4.137l6.199-2.092c0,0,2.718,11.238,2.419,23.543c0,0,2.688-20.139-4.457-36.963
	C664.223,197.735,654.543,193.63,654.543,193.63z"/>
<path fill="#03B58A" d="M604.939,181.739c0,0,20.455-9.566,41.466,6.023l-7.81,1.293l-4.974-1.248l1.954-2.98l-2.866,2.525
	l-5.741-1.369l1.384-4.898l-5.148,2.799l0.107-3.391C623.312,180.493,617.053,178.729,604.939,181.739z"/>
<path fill="#F4EAE4" d="M624.824,375.435c62.696,0,115.225-4.199,129.156-9.879c-0.932-2.428-2.039-4.795-3.283-7.129
	c-17.695-32.551-67.375-55.971-125.873-55.971c-58.488,0-108.17,23.42-125.871,55.971c-1.26,2.334-2.367,4.701-3.299,7.129
	C509.617,371.235,562.137,375.435,624.824,375.435"/>
<path fill="#F0AE7B" d="M752.27,361.571c0.222,0.441,0.412,0.885,0.604,1.328C752.682,362.456,752.491,362.013,752.27,361.571z"/>
<path fill="#F0AE7B" d="M496.914,362.563c0.312-0.672,0.611-1.328,0.939-1.984C497.525,361.235,497.227,361.892,496.914,362.563z"/>
<path fill="#F0AE7B" d="M497.922,360.442c0.328-0.688,0.672-1.344,1.031-2.016C498.594,359.099,498.25,359.755,497.922,360.442z"/>
<linearGradient id="SVGID_3_" gradientUnits="userSpaceOnUse" x1="495.6543" y1="364.3467" x2="753.9805" y2="364.3467">
	<stop  offset="0" style="stop-color:#D96FAD"/>
	<stop  offset="0" style="stop-color:#03B2BB"/>
	<stop  offset="0.1336" style="stop-color:#0AB3B8"/>
	<stop  offset="0.3296" style="stop-color:#1EB5AF"/>
	<stop  offset="0.5641" style="stop-color:#3EB9A2"/>
	<stop  offset="0.8261" style="stop-color:#6BBF8E"/>
	<stop  offset="0.9988" style="stop-color:#8CC380"/>
</linearGradient>
<path fill="url(#SVGID_3_)" d="M624.824,375.435c62.696,0,115.225-4.199,129.156-9.879c-0.313-0.84-0.658-1.664-1.023-2.473
	c0.206,0.473,0.42,0.992,0.633,1.48c-2.106,0.58-4.496,0.35-6.557-0.076c-3.168-0.658-5.84-2.551-9.016-3.236
	c-2.221-0.443-4.52-0.215-5.908,1.586c-0.74,0.963-1.16,2.094-1.977,3.039c-1.077,1.207-3.009,1.543-4.619,1.131
	c-1.068-0.367-2.069-0.902-2.848-1.299c-1.908-0.932-3.984-2.381-6.205-2.535c-2.695-0.168-3.031,1.695-3.727,3.635
	c-1.442,4.062-7.328,1.848-10.068,0.611c-2.717-1.207-5.878-3.711-9.061-2.643c-1.574,0.535-2.727,1.939-4.237,2.643
	c-2.062,0.945-4.405,1.115-6.664,0.916c-4.214-0.396-8.169-2.412-11.909-4.139c-3.572-1.664-7.152-3.113-11.137-3.541
	c-8.023-0.869-14.383,3.633-21.527,6.152c-3.092,1.1-6.252,1.727-9.566,1.604c-0.48-0.016-1.015-0.062-1.549-0.092
	c-3.023-0.672-6.008-1.895-8.588-3.48c-6.16-3.756-11.176-10.842-19.062-11.527c-3.9-0.352-8.114,1.131-11.748,2.289
	c-4.114,1.328-8.016,3.162-12.062,4.611c-1.893,0.688-4.61,1.512-6.328,0.076c-0.832-0.717-1.412-1.893-2.549-2.244
	c-0.963-0.305-2.68,0.855-3.459,1.176c-1.542,0.611-2.931,0.139-4.199-0.611c-0.701-0.656-1.496-1.236-2.365-1.74
	c-4.916-2.871-10.848-1.801-15.955-0.061c-6.068,2.076-11.649,5.252-17.756,7.221c-2.748,0.871-6.352,1.863-9.207,0.992
	c-2.351-0.686-2.564-3.984-4.029-5.588c-2.32-2.564-6.093-1.236-8.619,0.215c-1.48,0.84-2.87,1.832-4.176,2.916
	c-0.428,0.992-0.863,2-1.26,2.992C509.617,371.235,562.137,375.435,624.824,375.435"/>
<path fill="#F0AE7B" d="M751.521,360.015c0.176,0.35,0.328,0.672,0.489,1.021C751.85,360.687,751.697,360.364,751.521,360.015z"/>
<path fill="#F0AE7B" d="M497.854,360.579c0.008-0.047,0.031-0.078,0.068-0.137C497.885,360.501,497.861,360.532,497.854,360.579z"/>
<path fill="#F0AE7B" d="M752.011,361.036c0.091,0.17,0.198,0.336,0.259,0.535C752.209,361.372,752.102,361.206,752.011,361.036z"/>
<path fill="#F0AE7B" d="M750.697,358.427c0.29,0.549,0.549,1.068,0.824,1.588C751.246,359.495,750.987,358.976,750.697,358.427z"/>
<path fill="#F0AE7B" d="M752.873,362.899c0.039,0.061,0.053,0.105,0.084,0.184C752.926,363.005,752.912,362.96,752.873,362.899z"/>
<polygon fill="#F0AE7B" points="496.914,362.563 496.914,362.563 496.914,362.563 "/>
<g>
	<linearGradient id="SVGID_4_" gradientUnits="userSpaceOnUse" x1="501.6016" y1="362.5459" x2="753.8271" y2="362.5459">
		<stop  offset="0" style="stop-color:#D96FAD"/>
		<stop  offset="0" style="stop-color:#03B2BB"/>
		<stop  offset="0.1336" style="stop-color:#0AB3B8"/>
		<stop  offset="0.3296" style="stop-color:#1EB5AF"/>
		<stop  offset="0.5641" style="stop-color:#3EB9A2"/>
		<stop  offset="0.8261" style="stop-color:#6BBF8E"/>
		<stop  offset="0.9988" style="stop-color:#8CC380"/>
	</linearGradient>
	<path fill="url(#SVGID_4_)" d="M753.59,364.563c-2.106,0.58-4.496,0.35-6.557-0.076c-3.168-0.658-5.84-2.551-9.016-3.236
		c-2.221-0.443-4.52-0.215-5.908,1.586c-0.74,0.963-1.16,2.094-1.977,3.039c-1.077,1.207-3.009,1.543-4.619,1.131
		c-1.068-0.367-2.069-0.902-2.848-1.299c-1.908-0.932-3.984-2.381-6.205-2.535c-2.695-0.168-3.031,1.695-3.727,3.635
		c-1.442,4.062-7.328,1.848-10.068,0.611c-2.717-1.207-5.878-3.711-9.061-2.643c-1.574,0.535-2.727,1.939-4.237,2.643
		c-2.062,0.945-4.405,1.115-6.664,0.916c-4.214-0.396-8.169-2.412-11.909-4.139c-3.572-1.664-7.152-3.113-11.137-3.541
		c-8.023-0.869-14.383,3.633-21.527,6.152c-3.092,1.1-6.252,1.727-9.566,1.604c-0.48-0.016-1.015-0.062-1.549-0.092
		c-3.023-0.672-6.008-1.895-8.588-3.48c-6.16-3.756-11.176-10.842-19.062-11.527c-3.9-0.352-8.114,1.131-11.748,2.289
		c-4.114,1.328-8.016,3.162-12.062,4.611c-1.893,0.688-4.61,1.512-6.328,0.076c-0.832-0.717-1.412-1.893-2.549-2.244
		c-0.963-0.305-2.68,0.855-3.459,1.176c-1.542,0.611-2.931,0.139-4.199-0.611c-0.701-0.656-1.496-1.236-2.365-1.74
		c-4.916-2.871-10.848-1.801-15.955-0.061c-6.068,2.076-11.649,5.252-17.756,7.221c-2.748,0.871-6.352,1.863-9.207,0.992
		c-2.351-0.686-2.564-3.984-4.029-5.588c-2.153-2.367-5.588-1.373-8.107-0.074c2.48-0.656,5.1-0.688,6.054,1.586
		c2,4.795,1.374,9.131,10.58,7.543c9.175-1.588,30.618-14.336,35.069-11.604c4.436,2.764,4.13,7.984,8.564,6.824
		c4.467-1.145,3.993-4.061,7.207-1.893c3.222,2.184,0,11.893,16.396,6.824c16.382-5.084,19.588-12.627,25.727-7.832
		c6.129,4.764,7.336,14.047,25.58,8.977c18.222-5.068,21.894-7.678,28.328-2.748c6.413,4.916,15.009,6.672,23.115,2.305
		c8.131-4.334,8.733-4.061,13.496-1.434c4.741,2.596,13.771,3.619,15.917,0.441c2.146-3.205,7.198,2.598,10.565-0.15
		c3.365-2.75,6.13-2.031,11.19-1.742c3.282,0.199,9.573,0.611,14.436-1.268c-0.274-0.732-0.565-1.42-0.87-2.105
		C753.163,363.556,753.377,364.075,753.59,364.563z"/>
</g>
<path fill="#FEFDFD" d="M504.892,352.548c0,0,35.527-52.414,129.598-49.223c0,0,32.451,1.725,57.565,13.039
	c0,0,12.26,4.916-8.572,2.305c-20.833-2.594-59.429-6.656-41.665,1.451s34.345,23.008,4.588,18.809
	c-61.864-8.672-78.177-2.273-69.825,5.223c6.137,5.512-6.947,13.861-15.328,11.861c-6.107-1.434-5.283-11.283-22.771-4.32
	c-12.488,4.977-21.33,14.184-24.993,7.816C509.8,353.128,512.25,349.663,504.892,352.548z"/>
<path fill="#EBECEF" d="M712.902,329.388c-11.053-5.023-38.604-6.871-23.496,4.732c15.122,11.588,3.26,19.496-12.87,15.635
	c-16.115-3.863-59.208-9.467-47.383-1.74c11.855,7.725,14.496,11.404,4.114,11.982c-10.45,0.582-1.236,5.787,5.488,3.086
	c6.741-2.719,10.222-9.268,24.719-4.643c14.488,4.643,15.312,10.443,22.656,7.131c7.359-3.268,8.581-5.771,15.107-2.488
	c6.535,3.268,3.879-6.979,13.688-4.244c9.802,2.701,13.885,6.35,16.344-0.199c2.466-6.564,14.496,6.168,15.924,2.305
	C748.629,357.083,735.766,339.8,712.902,329.388z"/>
<g opacity="0.7">
	<path fill="#DC9C57" d="M525.869,348.396c-0.984,1.359-2.474,2.031-3.328,1.48c-0.848-0.564-0.748-2.107,0.229-3.48
		c0.985-1.359,2.466-2,3.32-1.449C526.953,345.495,526.861,347.036,525.869,348.396z"/>
	<path fill="#DC9C57" d="M532.273,347.86c-0.687,0.979-1.74,1.451-2.366,1.039c-0.61-0.383-0.527-1.496,0.168-2.473
		c0.679-0.963,1.764-1.436,2.358-1.039C533.06,345.769,532.991,346.884,532.273,347.86z"/>
</g>
<g opacity="0.7">
	<path fill="#DC9C57" d="M594.289,314.897c-0.625,0.855-1.571,1.268-2.113,0.918c-0.534-0.352-0.481-1.33,0.152-2.199
		c0.611-0.855,1.558-1.268,2.1-0.932C594.977,313.052,594.9,314.028,594.289,314.897z"/>
	<path fill="#DC9C57" d="M598.336,314.532c-0.458,0.627-1.115,0.932-1.496,0.672c-0.397-0.26-0.344-0.947,0.114-1.557
		c0.428-0.611,1.085-0.932,1.481-0.658C598.817,313.233,598.795,313.921,598.336,314.532z"/>
</g>
<g opacity="0.7">
	<path fill="#DC9C57" d="M674.727,328.319c-0.634,0.869-1.564,1.281-2.084,0.945c-0.564-0.367-0.488-1.342,0.114-2.197
		c0.611-0.855,1.558-1.283,2.1-0.932C675.413,326.472,675.338,327.464,674.727,328.319z"/>
	<path fill="#DC9C57" d="M678.78,327.983c-0.436,0.625-1.114,0.914-1.504,0.656c-0.39-0.229-0.351-0.947,0.099-1.559
		c0.459-0.609,1.138-0.9,1.512-0.656C679.283,326.669,679.208,327.372,678.78,327.983z"/>
</g>
<g opacity="0.7">
	<path fill="#DC9C57" d="M687.521,359.267c-0.61,0.855-1.542,1.281-2.099,0.93c-0.527-0.336-0.489-1.312,0.145-2.184
		c0.625-0.854,1.572-1.266,2.122-0.93C688.216,357.419,688.146,358.411,687.521,359.267z"/>
	<path fill="#DC9C57" d="M691.59,358.931c-0.451,0.609-1.139,0.9-1.527,0.67c-0.381-0.273-0.312-0.961,0.123-1.572
		c0.426-0.609,1.113-0.932,1.495-0.656C692.07,357.601,692.031,358.319,691.59,358.931z"/>
</g>
<g opacity="0.7">
	<path fill="#DC9C57" d="M713.689,338.44c-0.573,0.809-1.467,1.207-1.979,0.887c-0.519-0.338-0.449-1.268,0.139-2.092
		c0.595-0.811,1.48-1.191,2-0.871C714.354,336.716,714.285,337.632,713.689,338.44z"/>
	<path fill="#DC9C57" d="M717.536,338.12c-0.419,0.564-1.046,0.869-1.412,0.611c-0.358-0.215-0.336-0.902,0.092-1.48
		c0.427-0.58,1.061-0.855,1.42-0.627C718.01,336.868,717.964,337.54,717.536,338.12z"/>
</g>
<g>
	<path opacity="0.7" fill="#F9CA67" d="M598.946,344.532c0,0-0.099-2.215-2.152-1.344c-2.046,0.855-1.848,6.947,2.466,7.436
		c4.274,0.488,7.848-6.473,2.962-5.312C602.222,345.312,602.222,342.593,598.946,344.532z"/>
	<path fill="#B588A5" d="M598.236,343.86c0,0-0.121-2.213-2.168-1.344c-2.023,0.855-1.824,6.947,2.467,7.436
		c4.289,0.475,7.861-6.473,2.969-5.312C601.504,344.64,601.504,341.938,598.236,343.86z"/>
	<path fill="#B588A5" d="M601.504,344.64c0,0,0-2.701-3.268-0.779c0,0-0.106-1.557-1.32-1.543c0.459,0.275,0.778,0.826,0.878,1.559
		c0.282,1.832-0.244,3.74-0.786,5.588c0.458,0.244,0.938,0.428,1.527,0.488C602.824,350.427,606.396,343.479,601.504,344.64z
		 M600.374,346.149c-0.29,1.238-1.092,2.703-2.206,2.123c-0.572-0.32-0.488-1.436-0.404-1.924c0.145-0.746,0.694-1.953,1.351-2.365
		c0.833-0.52,1.274,0.365,1.39,1.008C600.534,345.235,600.488,345.692,600.374,346.149z M601.542,346.577
		c-0.168-0.029-0.29-0.121-0.29-0.289c-0.053-0.475,0.199-0.854,0.603-1.084c0.222-0.137,0.459,0.076,0.459,0.275
		c0.053,0.061,0.091,0.152,0.091,0.229C602.45,346.181,602.076,346.595,601.542,346.577z"/>
</g>
<g>
	<path opacity="0.7" fill="#F9CA67" d="M631.207,358.349c0,0,0-0.885-1.443-0.488c-1.42,0.383-0.61,5.604,2.779,5.512
		c3.358-0.107,3.557-4.352,2.656-4.625c-0.932-0.307-1.535,0.273-1.535,0.273S633.543,356.013,631.207,358.349z"/>
	<path fill="#B588A5" d="M630.496,357.661c0,0,0-0.869-1.435-0.486c-1.428,0.396-0.618,5.602,2.756,5.512
		c3.382-0.092,3.565-4.338,2.672-4.627c-0.946-0.305-1.558,0.289-1.558,0.289S632.825,355.356,630.496,357.661z"/>
	<path fill="#B588A5" d="M634.489,358.06c-0.946-0.305-1.558,0.289-1.558,0.289s-0.106-2.992-2.436-0.688c0,0,0-0.869-1.435-0.486
		c-0.274,0.09-0.458,0.336-0.558,0.686c0.451-0.32,1.229-0.275,1.718,0.246c0.13,0.168,0.245,0.32,0.358,0.502
		c0.092-0.412,0.328-0.777,0.756-0.916c1.001-0.289,1.115,1.406,1.115,1.955c-0.016,0.549-0.076,2.611-1.199,2.123
		c-0.152-0.078-0.252-0.215-0.344-0.367c-0.075,0.229-0.205,0.428-0.381,0.578c-0.152,0.125-0.29,0.17-0.474,0.17
		c0.489,0.35,1.077,0.564,1.764,0.535C635.199,362.595,635.383,358.349,634.489,358.06z M633.733,360.7
		c-0.138,0.244-0.466,0.535-0.794,0.367c-0.214-0.123-0.252-0.412-0.214-0.643c0.054-0.594,0.252-1.326,0.695-1.816
		c0.159-0.182,0.382-0.076,0.474,0.094c0,0,0.029,0,0.029,0.014C634.559,359.144,634.055,360.212,633.733,360.7z"/>
</g>
<g>
	<path opacity="0.7" fill="#F9CA67" d="M725.72,349.052c0,0-0.344-0.672-1.274,0.121c-0.924,0.795,1.709,4.459,4.229,3.223
		c2.512-1.238,1.023-4.535,0.198-4.443c-0.802,0.107-1.046,0.764-1.046,0.764S726.612,346.487,725.72,349.052z"/>
	<path fill="#B588A5" d="M724.926,348.776c0,0-0.352-0.656-1.275,0.123c-0.938,0.809,1.695,4.459,4.207,3.205
		c2.534-1.221,1.038-4.504,0.229-4.412c-0.816,0.092-1.046,0.764-1.046,0.764S725.797,346.196,724.926,348.776z"/>
	<path fill="#B588A5" d="M728.086,347.692c-0.816,0.092-1.046,0.764-1.046,0.764s-1.243-2.26-2.114,0.32
		c0,0-0.352-0.656-1.275,0.123c-0.19,0.152-0.236,0.412-0.19,0.701c0.26-0.396,0.848-0.625,1.404-0.396
		c0.177,0.076,0.321,0.152,0.481,0.244c-0.084-0.336-0.054-0.688,0.214-0.932c0.642-0.58,1.397,0.656,1.596,1.084
		c0.206,0.412,0.962,2.002-0.093,2.002c-0.121,0-0.251-0.062-0.396-0.123c0.039,0.184,0.008,0.381-0.045,0.549
		c-0.077,0.139-0.168,0.244-0.291,0.291c0.504,0.107,1.016,0.061,1.527-0.215C730.392,350.884,728.896,347.601,728.086,347.692z
		 M728.552,349.952c-0.038,0.213-0.167,0.566-0.466,0.535c-0.229,0-0.351-0.215-0.428-0.396c-0.168-0.475-0.312-1.115-0.168-1.604
		c0.068-0.199,0.268-0.199,0.397-0.107c0.022,0,0.022-0.016,0.038,0C728.566,348.487,728.605,349.464,728.552,349.952z"/>
</g>
</svg>
