<?xml version="1.0" encoding="utf-8"?>
<!-- Generator: Adobe Illustrator 16.0.0, SVG Export Plug-In . SVG Version: 6.00 Build 0)  -->
<!DOCTYPE svg PUBLIC "-//W3C//DTD SVG 1.1//EN" "http://www.w3.org/Graphics/SVG/1.1/DTD/svg11.dtd">
<svg version="1.1" id="Layer_1" xmlns="http://www.w3.org/2000/svg" xmlns:xlink="http://www.w3.org/1999/xlink" x="0px" y="0px"
	 width="800px" height="600px" viewBox="0 0 800 600" enable-background="new 0 0 800 600" xml:space="preserve">
<path fill="#8CC380" d="M786.687,14.923c3.688-0.987-59.55-38.938-138.476-20.765l6.004,16.835l-19.958-7.296
	c0,0-36.3,34.442-42.896,96.39l20.129,12.627l-22.794,12.554c0,0,7.718,60.403,33.042,92.593c0,0,21.25-51.842,27.316-58.285
	l-10.481-16.629l17.355,8.346l33.042-46.853l-9.755-21.959l14.771,11.927C693.986,94.407,720.325,33.508,786.687,14.923z"/>
<g>
	<path fill="#03B58A" d="M784.165,12.464c2.136,1.337,3.114,2.315,2.521,2.458c-66.361,18.585-92.7,79.484-92.7,79.484
		L679.216,82.48l9.755,21.959l-33.042,46.853l-17.355-8.346l10.481,16.629c-6.066,6.443-27.316,58.285-27.316,58.285
		s-2.809-96.523,43.209-157.204C704.02,9.099,766.029,10.714,784.165,12.464z"/>
</g>
<path fill="#8CC380" d="M784.407,10.158c0,0,70.364-110.701,203.079-97.582l23.816,10.455l-28.205,17.257l-26.58-10.455
	c0,0,3.015,10.598,5.15,12.563c2.145,1.956-15.605,12.052-15.605,12.052l-28.519-9.674l15.856,14.17l-22.165,12.132l-26.168-17.041
	l18.136,20.765C903.203-25.199,853.12,16.816,784.407,10.158z"/>
<path fill="#03B58A" d="M790.824,18.71c0,0,18.594-40.894,15.3-74.923l-12.105-2.243l13.784-7.296l-15.086-43.003l-13.469-2.171
	c0,0,6.496-6.946,7.089-6.946c0.771,0-21.779-28.689-31.427-33.67l-9.79,4.98l4.244-8.768c0,0-29.632-25.118-72.356-36.892
	c0,0-23.179-8.561-42.4-2.458l36.936,19.428l-21.188,6.174c0,0,22.059,50.083,26.24,55.351L693-121.094l-9.468,14.52l22.803,37.313
	l11.118-10.517l-4.146,18.307l22.659,29.955C735.967-31.517,772.553,13.451,790.824,18.71z"/>
<g>
	<path fill="#8CC380" d="M790.824,18.71c-18.271-5.259-54.857-50.227-54.857-50.227l-22.659-29.955l4.146-18.307l-11.118,10.517
		l-22.803-37.313l9.468-14.52l-16.404,7.368c-4.182-5.268-26.24-55.351-26.24-55.351l21.188-6.174l-36.936-19.428
		C759.119-200.71,790.824,18.71,790.824,18.71z"/>
</g>
<path fill="#03B58A" d="M816.678,3.068c0,0,161.897-47.211,192.273,119.74l-15.569-7.502L981.806,91.67l0.735,17.041l-11.998-6.802
	L964.271,78.9l-4.702,17.113l-40.302-27.074l-4.415-22.167l-5.582,17.187l-48.89-16.065l-7.089-22.031l-4.729,16.278l-61.453-28.133
	L816.678,3.068z"/>
<path fill="#03B58A" d="M787.566,14.008c0,0-80.783,38.794-92.072,143.88l11.891,6.659l-13.191,7.654l9.646,65.796l14.35,0.351
	l-6.91,7.43c0,0,19.357,39.494,57.559,57.729c0,0,14.241-73.792,21.008-86.562l-19.814-2.944l21.215-7.08l2.207-10.661
	l-29.883-10.589l28.375-5.617l9.226-62.854l-29.848-11.37l28.689,1.544L781.5,90.189l20.442-1.678l2.145-38.446L787.566,14.008z"/>
<g>
	<path fill="#03B58A" d="M787.566,14.008l16.521,36.057l-2.145,38.446L781.5,90.189l18.513,17.185l-28.689-1.544l29.848,11.37
		l-9.226,62.854l-28.375,5.617l29.883,10.589l-2.207,10.661l-21.215,7.08l19.814,2.944c-6.767,12.77-21.008,86.562-21.008,86.562
		C677.888,118.25,787.566,14.008,787.566,14.008z"/>
	<path fill="#8CC380" d="M694.193,172.201l13.191-7.654l-11.891-6.659c11.289-105.086,92.072-143.88,92.072-143.88
		S677.888,118.25,768.838,303.507c-38.201-18.235-57.559-57.729-57.559-57.729l6.91-7.43l-14.35-0.351L694.193,172.201z"/>
</g>
<path fill="#03B58A" d="M1006.6,119.794c0,0-18.342-83.343-73.791-105.858C877.457-8.508,823.021,5.519,823.021,5.519
	s52.121-6.443,82.533,7.161l-39.458-3.015l13.183,17.885l31.605,18.585l2.486-27.002l11.891,29.596l33.257,26.385l1.606-22.311
	l19.5,34.516l1.444-16.628C981.069,70.689,998.111,96.435,1006.6,119.794z"/>
<path fill="#03B58A" d="M689.85-183.103c0,0,78.423,39.135,100.66,193.396c0,0,5.788-60.538-27.254-118.832
	C730.25-166.69,689.85-183.103,689.85-183.103z"/>
<path fill="#03B58A" d="M770.444,11.486c0,0-99.538-7.717-131.278,93.51c0,0-19.887,58.366-16.691,108.584
	C622.475,213.58,611.84,36.882,770.444,11.486z"/>
<path fill="#03B58A" d="M780.271,28.743l19.464,20.2l-4.765,31.779l-35.356,6.452l26.302,13.191l-28.519-0.35
	c0,0-9.71,46.996-4.936,85.718l20.092,13.048l-28.869-0.978c0,0,2.567,50.854,19.294,102.481c0,0-36.577-81.725-27.495-161.835
	C744.527,58.206,780.271,28.743,780.271,28.743z"/>
<path fill="#03B58A" d="M975.281-82.865c0,0-98.838-14.87-168.395,77.723l34.837-4.352l19.5-11.424l-12.069-10.248l15.291,7.152
	l22.659-13.048l-11.962-19.079l25.359,5.34l-4.773-14.242C895.729-65.043,920.074-80.415,975.281-82.865z"/>
<g>
	<path fill="#ECD5E6" d="M94.177,145.736c0,0-165.654,112.631-170.838,380.322l50.228,2.475
		C-26.433,528.533-25.478,304.979,94.177,145.736z"/>
	<path fill="#917EC0" d="M94.177,145.736c0,0-15.334,10.424-36.794,32.446c0.958-0.262,1.471-0.461,1.471-0.461l-1.408,8.974
		l-5.092,1.271c0,0,5.909,2.813,3.745,5.212c-2.132,2.41-22.136,30.132-22.136,30.132l-8.082,0.599l4.708,6.779
		c-12.509,8.449-35.731,71.256-35.731,71.256l-17.166,0.698l18.254,7.381l-12.729,43.714l-18.771,3.126l15.689,8.326l-5.292,25.403
		c-12.6,0.402-21.369,4.478-21.369,4.478l19.883,5.511c-5.96,18.346-13.122,103.075-13.122,103.075l-35.965-2.185
		c-0.474,8.044-0.792,16.169-0.93,24.587l50.228,2.475C-26.433,528.533-25.478,304.979,94.177,145.736z"/>
	<path fill="#D4CCDD" d="M45.195,194.308c0,0-108.361,113.486-116.944,299.733l2.066-1.231
		C-69.683,492.81-60.646,324.048,45.195,194.308z"/>
	<path fill="#03B58A" d="M86.82,153.388c-2.759-0.785,45.031-28.688,104.066-14.341l-4.626,12.542l15.003-5.275
		c0,0,26.909,26.202,31.323,72.717l-15.247,9.306l17.007,9.561c0,0-6.31,45.382-25.581,69.231c0,0-15.531-39.032-20.002-43.961
		l8.015-12.356l-13.053,6.069l-24.463-35.41l7.591-16.442l-11.247,8.861C155.607,213.892,136.425,167.934,86.82,153.388z"/>
	<path fill="#8CC380" d="M88.702,151.531c-1.583,1.072-2.323,1.76-1.882,1.856c49.605,14.546,68.787,60.504,68.787,60.504
		l11.247-8.861l-7.591,16.442l24.463,35.41l13.053-6.069l-8.015,12.356c4.471,4.929,20.002,43.961,20.002,43.961
		s2.893-72.398-31.064-118.303C148.895,149.863,102.298,150.444,88.702,151.531z"/>
	<path fill="#03B58A" d="M88.478,149.779c0,0-51.797-83.632-151.409-74.962l-17.988,7.668l20.98,13.132l20.015-7.535
		c0,0-2.425,7.9-3.976,9.343c-1.592,1.451,11.636,9.106,11.636,9.106l21.511-6.955l-12.146,10.472l16.684,9.368l19.752-12.612
		l-13.835,15.469C-0.297,122.273,36.897,154.286,88.478,149.779z"/>
	<path fill="#8CC380" d="M83.638,156.259c0,0-13.618-30.877-10.812-56.416l9.117-1.552l-10.316-5.607l11.691-32.121l10.155-1.513
		c0,0-4.787-5.258-5.297-5.268c-0.507-0.07,16.67-21.333,23.928-25.051l7.328,3.927l-3.161-6.697c0,0,22.556-18.552,54.664-26.999
		c0,0,17.472-6.222,31.849-1.484L174.88,11.732l15.849,4.755c0,0-16.912,37.481-20.157,41.344l-12.335-5.629l6.998,10.895
		l-17.43,27.863l-8.225-7.939l2.872,13.692l-17.193,22.346C125.259,119.059,97.369,152.411,83.638,156.259z"/>
	<path fill="#03B58A" d="M83.638,156.259c13.731-3.848,41.621-37.2,41.621-37.2l17.193-22.346l-2.872-13.692l8.225,7.939
		l17.43-27.863l-6.998-10.895l12.335,5.629c3.245-3.863,20.157-41.344,20.157-41.344l-15.849-4.755l27.902-14.254
		C109.408-8.145,83.638,156.259,83.638,156.259z"/>
	<path fill="#03B58A" d="M64.379,144.21c0,0-121.022-36.829-145.351,88.177l11.661-5.438l8.947-17.693l-0.645,12.726l9.006-4.909
		l4.879-17.227l3.412,12.927l30.505-19.996l3.536-16.609l4.037,12.946l36.824-11.6l5.508-16.501l3.482,12.224l46.25-20.508
		L64.379,144.21z"/>
	<path fill="#03B58A" d="M86.153,152.74c0,0,60.312,29.793,67.808,108.744l-8.998,4.904l9.768,5.904l-7.754,49.261l-10.781,0.155
		l5.115,5.59c0,0-14.878,29.51-43.756,42.862c0,0-9.998-55.552-14.926-65.204l14.859-1.959L81.67,297.54l-1.62-8.17l22.497-7.599
		l-21.232-4.445l-6.374-47.303l22.578-8.27l-21.583,0.934l14.102-12.729l-15.399-1.409l-1.235-28.925L86.153,152.74z"/>
	<path fill="#03B58A" d="M86.153,152.74l-12.749,26.882l1.235,28.925l15.399,1.409l-14.102,12.729l21.583-0.934l-22.578,8.27
		l6.374,47.303l21.232,4.445l-22.497,7.599l1.62,8.17l15.818,5.458l-14.859,1.959c4.929,9.652,14.926,65.204,14.926,65.204
		C167.472,231.928,86.153,152.74,86.153,152.74z"/>
	<path fill="#8CC380" d="M154.731,272.292l-9.768-5.904l8.998-4.904c-7.495-78.951-67.808-108.744-67.808-108.744
		s81.319,79.188,11.403,217.42c28.878-13.353,43.756-42.862,43.756-42.862l-5.115-5.59l10.781-0.155L154.731,272.292z"/>
	<path fill="#03B58A" d="M-79.179,230.168c0,0,14.5-62.41,56.276-78.822c41.758-16.42,82.496-5.334,82.496-5.334
		s-39-5.295-62.002,4.678l29.664-1.876l-10.052,13.233l-23.896,13.64l-1.63-20.267l-9.187,22.115l-25.213,19.548l-1.016-16.8
		l-14.943,25.791l-0.88-12.597C-59.562,193.477-72.627,212.657-79.179,230.168z"/>
	<path fill="#D4CCDD" d="M161.236,5.676c0,0-59.165,28.638-77.324,144.267c0,0-3.748-45.558,21.537-88.956
		C130.741,17.586,161.236,5.676,161.236,5.676z"/>
	<path fill="#D4CCDD" d="M98.979,150.983c0,0,74.784-4.868,97.686,71.287c0,0,14.501,44.049,11.629,81.683
		C208.293,303.953,217.844,171.483,98.979,150.983z"/>
	<path fill="#03B58A" d="M91.462,163.834l-14.725,14.975l3.163,23.958l26.488,5.137l-19.755,9.584l21.301-0.018
		c0,0,6.939,35.428,3.032,64.402l-15.246,9.698l21.661-0.57c0,0-2.359,38.168-15.349,76.808c0,0,28.213-61.038,22.068-121.289
		C118.073,186.3,91.462,163.834,91.462,163.834z"/>
	<path fill="#8CC380" d="M-53.908,78.346c0,0,74.346-10.263,125.705,59.775l-26.123-3.548l-14.536-8.746l9.165-7.557l-11.555,5.207
		l-16.878-9.989l9.17-14.203L1.97,103.112l3.71-10.68C5.68,92.432-12.494,80.686-53.908,78.346z"/>
</g>
</svg>
